<svg xmlns="http://www.w3.org/2000/svg" width="360" height="360" viewBox="0 0 360 360" fill="none">
  <defs>
    <linearGradient id="squiggleA" x1="20" y1="20" x2="120" y2="120" gradientUnits="userSpaceOnUse">
      <stop offset="0" stop-color="#ff5f36"/>
      <stop offset="0.5" stop-color="#ffe34d"/>
      <stop offset="1" stop-color="#77ff66"/>
    </linearGradient>
    <linearGradient id="squiggleB" x1="0" y1="0" x2="120" y2="120" gradientUnits="userSpaceOnUse">
      <stop offset="0" stop-color="#38f2ff"/>
      <stop offset="0.5" stop-color="#5d7dff"/>
      <stop offset="1" stop-color="#ff53cb"/>
    </linearGradient>
    <linearGradient id="squiggleC" x1="0" y1="0" x2="120" y2="120" gradientUnits="userSpaceOnUse">
      <stop offset="0" stop-color="#ff4ca2"/>
      <stop offset="0.5" stop-color="#ff6c43"/>
      <stop offset="1" stop-color="#ffd85c"/>
    </linearGradient>
    <pattern id="dotsA" width="42" height="42" patternUnits="userSpaceOnUse">
      <circle cx="5" cy="6" r="1.2" fill="#ff4bc6"/>
      <circle cx="14" cy="10" r="1.1" fill="#64ff64"/>
      <circle cx="24" cy="8" r="1.1" fill="#42b4ff"/>
      <rect x="10" y="22" width="2" height="2" transform="rotate(20 11 23)" fill="#ff6f6f"/>
    </pattern>
    <pattern id="dotsB" width="56" height="56" patternUnits="userSpaceOnUse">
      <circle cx="7" cy="10" r="1.2" fill="#57ccff"/>
      <circle cx="18" cy="16" r="1.1" fill="#ff58b0"/>
      <rect x="31" y="26" width="2.2" height="2.2" transform="rotate(-18 32.1 27.1)" fill="#ffa160"/>
    </pattern>
    <g id="star" stroke-width="2.4" stroke-linecap="round" stroke-linejoin="round">
      <path d="M0 -10 L2.8 -2.8 L10 0 L2.8 2.8 L0 10 L-2.8 2.8 L-10 0 L-2.8 -2.8 Z"/>
    </g>
    <g id="triangle" stroke-width="2.4" stroke-linejoin="round">
      <path d="M0 -10 L9 8 L-9 8 Z"/>
    </g>
    <g id="diamond" stroke-width="2.4" stroke-linejoin="round">
      <path d="M0 -10 L10 0 L0 10 L-10 0 Z"/>
    </g>
  </defs>

  <rect width="360" height="360" fill="#060912"/>
  <rect width="360" height="360" fill="url(#dotsA)"/>
  <rect width="360" height="360" fill="url(#dotsB)" opacity="0.55"/>

  <g transform="translate(18 18) scale(0.9)">
    <path d="M38 34 C 54 18, 70 50, 86 34 C 102 18, 118 50, 134 34" stroke="url(#squiggleA)" stroke-width="5" stroke-linecap="round"/>
    <path d="M226 48 C 242 30, 258 62, 274 46 C 290 30, 306 62, 322 46" stroke="url(#squiggleB)" stroke-width="5" stroke-linecap="round"/>
    <path d="M96 150 C 110 132, 126 166, 140 150 C 154 134, 170 166, 184 150" stroke="url(#squiggleB)" stroke-width="5" stroke-linecap="round"/>
    <path d="M258 174 C 274 154, 290 188, 306 172 C 320 154, 336 186, 350 172" stroke="url(#squiggleC)" stroke-width="5" stroke-linecap="round"/>
    <path d="M30 254 C 46 236, 62 270, 78 252 C 92 236, 108 270, 122 252" stroke="url(#squiggleC)" stroke-width="5" stroke-linecap="round"/>
    <path d="M188 292 C 204 274, 220 306, 236 290 C 250 274, 266 306, 280 290" stroke="url(#squiggleA)" stroke-width="5" stroke-linecap="round"/>
  </g>

  <g stroke="#49b8ff" transform="translate(52 88)"><use href="#diamond"/></g>
  <g stroke="#ff4cb8" transform="translate(92 206)"><use href="#star"/></g>
  <g stroke="#7dff64" transform="translate(304 88)"><use href="#triangle"/></g>
  <g stroke="#ff8e4a" transform="translate(274 238)"><use href="#diamond"/></g>
  <g stroke="#66ff89" transform="translate(145 308)"><use href="#star"/></g>
  <g stroke="#4a79ff" transform="translate(200 94)"><use href="#star"/></g>
  <g stroke="#ff5bc8" transform="translate(232 308)"><use href="#triangle"/></g>
  <g stroke="#7ae3ff" transform="translate(30 318)"><use href="#diamond"/></g>

  <circle cx="40" cy="126" r="9" stroke="#ff6d52" stroke-width="2.4"/>
  <circle cx="128" cy="66" r="8" stroke="#68ff73" stroke-width="2.4"/>
  <circle cx="214" cy="220" r="8" stroke="#54bcff" stroke-width="2.4"/>
  <circle cx="326" cy="284" r="9" stroke="#ff58bf" stroke-width="2.4"/>
</svg>
